<svg xmlns="http://www.w3.org/2000/svg" aria-hidden="true" style="position:absolute;width:0;height:0;overflow:hidden">
  <defs>
  <symbol id="icon-arrow" viewBox="0 0 20 32">
    <path fill="currentColor" d="M9.846 0.615c-1.020 0-1.846 0.827-1.846 1.846v19.925l-4.188-4.5c-0.695-0.746-1.862-0.788-2.608-0.094s-0.789 1.864-0.094 2.611l8.736 9.382 8.736-9.382c0.695-0.746 0.652-1.916-0.094-2.611s-1.914-0.652-2.608 0.094l-4.188 4.5v-19.925c0-1.020-0.827-1.846-1.846-1.846z"></path>
  </symbol>
    <symbol id="icon-tiktok" viewBox="0 0 27 32">
      <path d="M23.346 6.844a6.924 6.924 0 0 1-.606-.367 8.607 8.607 0 0 1-1.556-1.375c-1.16-1.381-1.593-2.781-1.753-3.762h.006c-.133-.814-.078-1.341-.07-1.341h-5.284V21.25c0 .285 0 .567-.012.846 0 .035-.003.067-.005.104 0 .015 0 .031-.003.047v.012c-.056.762-.291 1.499-.684 2.145s-.934 1.181-1.573 1.559a4.28 4.28 0 0 1-2.186.6c-2.462 0-4.457-2.088-4.457-4.666s1.995-4.666 4.457-4.666c.466 0 .929.076 1.372.226l.006-5.596c-1.345-.181-2.712-.07-4.013.327s-2.51 1.068-3.55 1.975a10.726 10.726 0 0 0-2.263 2.902c-.223.4-1.065 2.007-1.167 4.616-.064 1.481.363 3.015.567 3.648v.013c.128.373.625 1.647 1.434 2.721a10.924 10.924 0 0 0 2.289 2.246v-.013l.013.013c2.558 1.808 5.394 1.689 5.394 1.689.491-.021 2.136 0 4.003-.921 2.072-1.021 3.251-2.541 3.251-2.541a10.669 10.669 0 0 0 1.772-3.062c.478-1.307.638-2.875.638-3.502V10.698c.064.04.918.627.918.627s1.23.82 3.149 1.354c1.377.38 3.232.46 3.232.46V7.683c-.65.073-1.97-.14-3.321-.841z"/>
    </symbol>
    <symbol id="icon-facebook" viewBox="0 0 16 32">
      <path d="M13.079 5.313H16V.225C15.496.156 13.763 0 11.744 0 7.532 0 4.647 2.649 4.647 7.519V12H-.001v5.688h4.648V32h5.698V17.689h4.46l.708-5.688h-5.169V8.082c.001-1.644.444-2.769 2.734-2.769z"/>
    </symbol>
    <symbol id="icon-youtube" viewBox="0 0 38 32">
      <path d="M19.206 1.6c.077 0 7.742.05 12.819.416l.069.006c.057.008.121.017.191.025.842.095 2.593.291 4.137 1.919 1.337 1.385 1.661 4.11 1.694 4.416l.003.016c.012.128.281 3.159.281 6.203v2.847c0 3.043-.27 6.076-.281 6.203l-.006.038c-.038.3-.405 2.965-1.678 4.334-1.527 1.663-3.25 1.844-4.078 1.931a9.115 9.115 0 0 0-.216.025l-.068.006c-5.077.365-12.742.415-12.819.416h-.022c-.39-.006-9.581-.143-12.512-.419l-.088-.012c-.092-.016-.228-.029-.384-.047-.988-.112-2.823-.321-4.275-1.894C.644 26.645.318 23.975.285 23.67l-.003-.019c-.011-.128-.281-3.16-.281-6.203v-2.847c0-3.044.27-6.076.281-6.203l.006-.037c.038-.299.405-2.965 1.678-4.334C3.515 2.34 5.249 2.141 6.082 2.046c.065-.007.124-.015.178-.022l.069-.006c5.122-.365 12.789-.415 12.866-.416h.012zm-2.815 8.659c-.514-.257-1.121-.248-1.625.025s-.803.754-.803 1.287v8.856c0 .532.3 1.014.8 1.288a1.749 1.749 0 0 0 1.619.035l8.934-4.391c.53-.261.863-.762.866-1.312s-.325-1.057-.853-1.322l-8.938-4.466z"/>
    </symbol>
    <symbol id="icon-inst" viewBox="0 0 32 32">
      <path d="M16.005 0c4.169 0 4.704.018 6.362.096 1.693.075 2.879.35 3.927.755a8.223 8.223 0 0 1 2.943 1.914l-.461.469.469-.461.305.315a8.14 8.14 0 0 1 1.614 2.633c.406 1.044.683 2.237.758 3.93.073 1.652.078 2.187.078 6.352 0 4.169-.019 4.703-.091 6.354-.075 1.695-.35 2.881-.755 3.93a8.508 8.508 0 0 1-4.867 4.867c-1.045.406-2.238.681-3.932.755-1.651.073-2.184.091-6.354.091s-4.703-.018-6.354-.091c-1.694-.075-2.881-.35-3.93-.755a8.222 8.222 0 0 1-2.943-1.917l.464-.466-.469.461.003.005a8.232 8.232 0 0 1-1.924-2.953C.443 25.24.167 24.049.093 22.357.02 20.706.002 20.172.002 16.003c0-4.168.018-4.702.096-6.359.075-1.693.35-2.879.755-3.927a8.221 8.221 0 0 1 1.609-2.625l.305-.315.471.458-.464-.469A8.139 8.139 0 0 1 5.722.847C6.766.442 7.959.167 9.652.092 11.303.02 11.837.001 16.006.001zM16 8.422a7.58 7.58 0 1 0 .003 15.16A7.58 7.58 0 0 0 16 8.421zm9.263-5.055a3.369 3.369 0 1 0 .004 6.738 3.369 3.369 0 0 0-.004-6.738z"/>
    </symbol>
    <symbol id="icon-phone" viewBox="0 0 32 32">
      <path d="M3.214.001a3.211 3.211 0 0 0-3.201 3.5 31.74 31.74 0 0 0 4.94 13.922 31.339 31.339 0 0 0 9.654 9.634 31.882 31.882 0 0 0 13.884 4.931A3.217 3.217 0 0 0 32 28.777V23.96a3.218 3.218 0 0 0-2.768-3.261 20.657 20.657 0 0 1-4.522-1.123c-.576-.216-1.202-.264-1.803-.136s-1.154.428-1.592.859l-2.042 2.038a25.716 25.716 0 0 1-9.654-9.634l2.045-2.04a3.207 3.207 0 0 0 .723-3.388 20.53 20.53 0 0 1-1.127-4.511A3.212 3.212 0 0 0 8.044.002H3.216z"/>
    </symbol>
    <symbol id="icon-pin" viewBox="0 0 32 32">
      <path d="M26.501 8.841c2.443 2.284 3.233 5.409 1.763 6.981s-4.641.994-7.084-1.29c-2.443-2.284-3.233-5.409-1.763-6.981s4.641-.994 7.084 1.29zM9.498 14.359c1.226-1.311 3.394-1.45 5.682-.585l-2.193 1.812c-1.188 1.271-.549 3.799 1.427 5.645s4.54 2.313 5.728 1.042l1.932-2.041c1.006 2.217 1.009 4.379-.212 5.686-1.956 2.091-6.309 1.2-9.722-1.992s-4.596-7.474-2.641-9.566z"/>
      <path d="M15.318 20.386c1.578 1.476 3.591 1.888 4.495.921a313.39 313.39 0 0 1 3.261-4.455c-2.635-1.506-4.235-3.451-4.706-4.235l-4.271 3.347c-.904.967-.357 2.947 1.221 4.423zM11.779 25.322c-.471-.314-1.506-1.129-1.882-1.882l-2.824 3.294-.502.753c-.557.835.406 1.846 1.267 1.329l1.117-.67 2.824-2.824z"/>
    </symbol>
  </defs>
</svg>
